<?xml version="1.0" encoding="utf-8"?>
<!-- Generator: Adobe Illustrator 25.4.8, SVG Export Plug-In . SVG Version: 6.00 Build 0)  -->
<svg version="1.1" id="Calque_1" xmlns="http://www.w3.org/2000/svg" xmlns:xlink="http://www.w3.org/1999/xlink" x="0px" y="0px"
	 viewBox="0 0 42.52 28.35" style="enable-background:new 0 0 42.52 28.35;" xml:space="preserve">
<style type="text/css">
	.st0{clip-path:url(#SVGID_00000136408420208294275030000001871718738730087084_);fill:#FFFFFF;}
	.st1{fill:#512A5B;}
	.st2{clip-path:url(#SVGID_00000046305369488657343710000004684940998196789393_);fill:#512A5B;}
	.st3{clip-path:url(#SVGID_00000046305369488657343710000004684940998196789393_);fill:#FFFFFF;}
	.st4{fill:#FFFFFF;}
	.st5{clip-path:url(#SVGID_00000175319887289794908440000018446509757366728850_);fill:#886487;}
	.st6{clip-path:url(#SVGID_00000175319887289794908440000018446509757366728850_);fill:#FFFFFF;}

		.st7{clip-path:url(#SVGID_00000175319887289794908440000018446509757366728850_);fill:none;stroke:#FFFFFF;stroke-width:0.046;stroke-miterlimit:10;}
	.st8{clip-path:url(#SVGID_00000070082249172616635580000009934791196489314692_);}
	.st9{font-family:'ArialMT';}
	.st10{font-size:8px;}
</style>
<g>
	<defs>
		<rect id="SVGID_1_" y="0" width="42.52" height="28.35"/>
	</defs>
	<clipPath id="SVGID_00000167377959774926103680000018008126889949336993_">
		<use xlink:href="#SVGID_1_"  style="overflow:visible;"/>
	</clipPath>
	<path style="clip-path:url(#SVGID_00000167377959774926103680000018008126889949336993_);fill:#FFFFFF;" d="M36.85,28.35
		c3.13,0,5.67-2.54,5.67-5.67v-4.25c0-5.48-4.44-9.92-9.92-9.92H9.92C4.44,8.5,0,12.95,0,18.43v4.25c0,3.13,2.54,5.67,5.67,5.67
		H36.85z"/>
</g>
<rect y="9.24" class="st1" width="42.52" height="10.6"/>
<g>
	<defs>
		<rect id="SVGID_00000005963470328106781040000007828399770565399967_" y="0" width="42.52" height="28.35"/>
	</defs>
	<clipPath id="SVGID_00000060724380079031895930000006467192946846537351_">
		<use xlink:href="#SVGID_00000005963470328106781040000007828399770565399967_"  style="overflow:visible;"/>
	</clipPath>
	<path style="clip-path:url(#SVGID_00000060724380079031895930000006467192946846537351_);fill:#512A5B;" d="M5.67,0
		C2.54,0,0,2.54,0,5.67v4.25c0,5.48,4.44,9.92,9.92,9.92H32.6c5.48,0,9.92-4.44,9.92-9.92V5.67c0-3.13-2.54-5.67-5.67-5.67H5.67z"/>
	<path style="clip-path:url(#SVGID_00000060724380079031895930000006467192946846537351_);fill:#FFFFFF;" d="M24.01,17.65h0.49
		l-0.32-0.55c0.17-0.08,0.25-0.21,0.28-0.38l0.01-0.05c0.04-0.28-0.12-0.45-0.59-0.45c-0.26,0-0.49,0.04-0.64,0.11l-0.19,1.32h0.49
		l0.07-0.47h0.13L24.01,17.65z M23.7,16.49c0.03-0.01,0.07-0.02,0.13-0.02c0.12,0,0.16,0.07,0.14,0.16l-0.03,0.16
		c-0.01,0.09-0.06,0.16-0.19,0.16h-0.12L23.7,16.49z"/>
	<path style="clip-path:url(#SVGID_00000060724380079031895930000006467192946846537351_);fill:#FFFFFF;" d="M17.65,17.59
		c0.01-0.06-0.01-0.12-0.09-0.12h-0.39c-0.12,0-0.16-0.07-0.14-0.16l0.02-0.12l0.15,0c0.45-0.01,0.65-0.18,0.69-0.45l0.01-0.05
		c0.04-0.28-0.12-0.46-0.59-0.46c-0.26,0-0.49,0.04-0.64,0.11l-0.12,0.86c-0.04,0.27,0.11,0.45,0.56,0.46h0.54L17.65,17.59z
		 M17.4,16.63l-0.03,0.16c-0.01,0.08-0.06,0.16-0.19,0.16h-0.12l0.06-0.45c0.03-0.01,0.07-0.02,0.13-0.02
		C17.39,16.47,17.42,16.54,17.4,16.63"/>
	<path style="clip-path:url(#SVGID_00000060724380079031895930000006467192946846537351_);fill:#FFFFFF;" d="M16.4,17.58L16.4,17.58
		c0.01-0.06-0.01-0.11-0.09-0.11h-0.06c-0.12,0-0.16-0.07-0.14-0.16l0.11-0.79h0.14c0.07,0,0.13-0.07,0.15-0.18h-0.27l0.08-0.57
		c-0.36,0.04-0.52,0.21-0.56,0.45l-0.14,0.98c-0.04,0.27,0.1,0.45,0.55,0.46h0.21L16.4,17.58z"/>
	<path style="clip-path:url(#SVGID_00000060724380079031895930000006467192946846537351_);fill:#FFFFFF;" d="M19.33,16.68
		L19.33,16.68c0.04-0.28-0.12-0.45-0.59-0.45c-0.26,0-0.49,0.04-0.64,0.11l-0.19,1.32h0.49l0.07-0.47h0.13l0.93,1.27
		c0.06,0.08,0.14,0.15,0.24,0.15h0.13l-0.86-1.49c0.17-0.08,0.25-0.21,0.28-0.38L19.33,16.68z M18.84,16.63l-0.03,0.16
		c-0.01,0.09-0.06,0.16-0.19,0.16h-0.12l0.07-0.45c0.03-0.01,0.07-0.02,0.13-0.02C18.82,16.47,18.85,16.54,18.84,16.63"/>
	<path style="clip-path:url(#SVGID_00000060724380079031895930000006467192946846537351_);fill:#FFFFFF;" d="M14.11,15.76h-0.49
		l-0.2,1.44c-0.03,0.25,0.09,0.41,0.43,0.45L14.11,15.76z"/>
	<path style="clip-path:url(#SVGID_00000060724380079031895930000006467192946846537351_);fill:#FFFFFF;" d="M28.4,17.59
		c0.01-0.06-0.01-0.12-0.09-0.12h-0.39c-0.12,0-0.16-0.07-0.14-0.16l0.02-0.12l0.15,0c0.45-0.01,0.65-0.18,0.69-0.45l0.01-0.05
		c0.04-0.28-0.12-0.46-0.59-0.46c-0.26,0-0.49,0.04-0.64,0.11l-0.12,0.86c-0.04,0.27,0.11,0.45,0.56,0.46h0.54L28.4,17.59z
		 M28.15,16.63l-0.03,0.16c-0.01,0.08-0.06,0.16-0.19,0.16h-0.12l0.06-0.45c0.03-0.01,0.07-0.02,0.13-0.02
		C28.14,16.47,28.17,16.54,28.15,16.63"/>
	<path style="clip-path:url(#SVGID_00000060724380079031895930000006467192946846537351_);fill:#FFFFFF;" d="M28.41,15.9h-0.68
		l-0.03,0.18h0.56C28.33,16.08,28.39,16.01,28.41,15.9"/>
	<path style="clip-path:url(#SVGID_00000060724380079031895930000006467192946846537351_);fill:#FFFFFF;" d="M26.57,16.22
		c-0.05,0-0.09,0-0.13,0l0.06-0.47c-0.35,0.04-0.52,0.21-0.56,0.45l-0.2,1.44h0.49l0.16-1.16c0.03-0.01,0.07-0.02,0.13-0.02
		c0.12,0,0.16,0.07,0.14,0.16l-0.14,1.02h0.49l0.14-0.97C27.2,16.4,27.04,16.22,26.57,16.22"/>
	<path style="clip-path:url(#SVGID_00000060724380079031895930000006467192946846537351_);fill:#FFFFFF;" d="M22,16.23
		c-0.07,0-0.13,0.07-0.15,0.18h0.5c0.12,0,0.16,0.08,0.14,0.16l-0.02,0.14h-0.16c-0.45,0.01-0.64,0.18-0.68,0.45l-0.01,0.05
		c-0.04,0.28,0.12,0.46,0.59,0.46c0.26,0,0.48-0.04,0.64-0.11l0.12-0.88c0.04-0.27-0.11-0.45-0.55-0.46H22z M22.38,17.41
		c-0.03,0.01-0.07,0.02-0.13,0.02c-0.12,0-0.16-0.07-0.14-0.16l0.03-0.16c0.01-0.09,0.06-0.16,0.19-0.16h0.12L22.38,17.41z"/>
	<path style="clip-path:url(#SVGID_00000060724380079031895930000006467192946846537351_);fill:#FFFFFF;" d="M20.97,16.23
		c-0.16,0-0.31,0.02-0.44,0.05c-0.09-0.03-0.2-0.05-0.34-0.05c-0.26,0-0.48,0.04-0.64,0.11l-0.14,1.01l0.18,0.31h0.27l0.16-1.16
		c0.03-0.01,0.07-0.02,0.13-0.02c0.11,0,0.14,0.05,0.15,0.12l-0.15,1.06h0.49l0.16-1.16c0.03-0.01,0.07-0.02,0.13-0.02
		c0.11,0,0.15,0.05,0.15,0.12l-0.15,1.06h0.49l0.14-0.97C21.59,16.4,21.44,16.23,20.97,16.23"/>
	<path style="clip-path:url(#SVGID_00000060724380079031895930000006467192946846537351_);fill:#FFFFFF;" d="M14.85,17.65L15,16.63
		c0.01-0.09-0.02-0.21-0.27-0.14l-0.16,1.16h-0.49l0.19-1.32c0.15-0.07,0.38-0.11,0.64-0.11c0.47,0,0.63,0.17,0.59,0.46l-0.14,0.97
		H14.85z"/>
	<path style="clip-path:url(#SVGID_00000060724380079031895930000006467192946846537351_);fill:#FFFFFF;" d="M25.77,16.49l0.01-0.08
		c0.01-0.07,0.02-0.14-0.08-0.15c-0.1-0.02-0.21-0.02-0.34-0.02c-0.47,0-0.68,0.18-0.72,0.46l-0.07,0.53
		c-0.04,0.28,0.12,0.46,0.59,0.46c0.13,0,0.26-0.01,0.37-0.03c0.05-0.01,0.09-0.04,0.1-0.15l0.01-0.08
		c-0.12,0.03-0.27,0.05-0.45,0.05c-0.12,0-0.16-0.07-0.14-0.16l0.1-0.69c0.01-0.09,0.07-0.16,0.19-0.16
		C25.62,16.44,25.77,16.49,25.77,16.49"/>
</g>
<polygon class="st4" points="19.7,17.85 20.12,18.59 28.25,18.59 28.36,17.85 "/>
<g>
	<defs>
		<rect id="SVGID_00000175292425658669071230000011672530459957083824_" x="7.05" y="0.57" width="27.39" height="15.19"/>
	</defs>
	<clipPath id="SVGID_00000134209007177790236790000008970984659547934367_">
		<use xlink:href="#SVGID_00000175292425658669071230000011672530459957083824_"  style="overflow:visible;"/>
	</clipPath>
	<path style="clip-path:url(#SVGID_00000134209007177790236790000008970984659547934367_);fill:#886487;" d="M21.01,2.66
		c0.13-0.22,0.49-0.75,0.95-0.96c0.14-0.06,0.26-0.05,0.42-0.01c0.17,0.05,0.43,0.34,0.46,0.48c0.03,0.09,0.02,0.33-0.07,0.36
		c-0.44,0.15-1.01,0.46-1.21,0.62c-0.31,0.26-0.51,0.57-0.54,1c0,0.03,0,0.07,0.01,0.12c0.01,0.08,0.03,0.17-0.1,0.17
		c-0.01,0,0,0,0,0c-0.03,0.01-0.08,0-0.12-0.02c-0.03-0.02-0.06-0.05-0.08-0.09c-0.02-0.05-0.04-0.15-0.05-0.23
		C20.63,3.57,20.75,3.09,21.01,2.66"/>
	<path style="clip-path:url(#SVGID_00000134209007177790236790000008970984659547934367_);fill:#886487;" d="M25.69,10.77
		c-0.28,0.41-1.1,1.49-2.34,1.72c-0.98,0.18-1.97,0-2.45,0c-0.64,0-0.75,0.18-2.09,0.09c-1.36-0.09-3.08-1.79-3.39-3.32
		C15.33,8.93,15.3,8.6,15.3,8.29c-0.01-0.43,0.06-0.87,0.21-1.3c0.45-1.31,1.51-2.38,3.03-2.68c0.3-0.06,0.69-0.05,0.85,0.5
		c-0.29,0.1-0.57,0.21-0.78,0.32c-0.09,0.05-0.95,0.57-0.81,0.82c0.02,0.03,0.05,0.04,0.08,0.05c0,0,0,0,0,0.01
		c0.01,0.01,0.03,0,0.06-0.01c0.35-0.05,1.17-0.77,2.62-0.93c0.66-0.07,0.96,0.09,1.22,0.28c1.33,0.98,2.03,1.5,2.03,1.25
		c-0.01-0.49-0.32-0.95-0.58-1.26c-0.08-0.09-0.66-0.57-1.02-0.69c0.17-0.49,1.55-0.53,2.1-0.28c1.64,0.73,2.43,2.21,2.39,3.61
		C26.74,8.92,26.16,10.08,25.69,10.77"/>
	<path style="clip-path:url(#SVGID_00000134209007177790236790000008970984659547934367_);fill:#FFFFFF;" d="M18.35,13.61h0.47
		c0.21,0,0.33,0.1,0.33,0.26c0,0.16-0.11,0.26-0.33,0.26h-0.32v0.36h-0.14V13.61z M18.49,14.03h0.28c0.16,0,0.23-0.06,0.23-0.16
		s-0.07-0.16-0.23-0.16h-0.28V14.03z"/>
	<path style="clip-path:url(#SVGID_00000134209007177790236790000008970984659547934367_);fill:#FFFFFF;" d="M19.79,13.61h0.16
		l0.42,0.89h-0.16l-0.12-0.27h-0.45l-0.12,0.27h-0.15L19.79,13.61z M19.69,14.13h0.36l-0.18-0.41h0L19.69,14.13z"/>
	<path style="clip-path:url(#SVGID_00000134209007177790236790000008970984659547934367_);fill:#FFFFFF;" d="M20.77,13.61h0.5
		c0.2,0,0.32,0.09,0.32,0.23c0,0.11-0.06,0.2-0.18,0.23v0c0.12,0.02,0.15,0.1,0.16,0.18c0.01,0.09,0,0.18,0.06,0.24h-0.16
		c-0.04-0.04-0.02-0.13-0.04-0.22c-0.02-0.09-0.04-0.16-0.18-0.16h-0.34v0.38h-0.14V13.61z M21.2,14.01c0.13,0,0.25-0.03,0.25-0.16
		c0-0.09-0.06-0.15-0.19-0.15h-0.35v0.31H21.2z"/>

		<rect x="22.09" y="13.61" style="clip-path:url(#SVGID_00000134209007177790236790000008970984659547934367_);fill:#FFFFFF;" width="0.14" height="0.89"/>
	<path style="clip-path:url(#SVGID_00000134209007177790236790000008970984659547934367_);fill:#FFFFFF;" d="M23.39,13.87
		c-0.02-0.13-0.12-0.18-0.26-0.18c-0.12,0-0.24,0.04-0.24,0.15c0,0.11,0.17,0.13,0.34,0.16c0.17,0.03,0.34,0.08,0.34,0.26
		c0,0.19-0.22,0.27-0.42,0.27c-0.24,0-0.44-0.1-0.44-0.31h0.13c0,0.15,0.15,0.21,0.31,0.21c0.13,0,0.27-0.03,0.27-0.16
		c0-0.12-0.17-0.14-0.34-0.17c-0.17-0.03-0.34-0.07-0.34-0.24c0-0.18,0.19-0.26,0.39-0.26c0.22,0,0.38,0.09,0.39,0.28H23.39z"/>
	<path style="clip-path:url(#SVGID_00000134209007177790236790000008970984659547934367_);fill:#FFFFFF;" d="M31.73,6.53
		c-0.23,0-0.41,0.18-0.41,0.41v1.17c-0.21-0.12-0.45-0.2-0.71-0.2h0c-0.91,0-1.65,0.74-1.65,1.65s0.74,1.65,1.65,1.65
		c0.09,0,1.54-0.01,1.54-1.63V6.95C32.14,6.72,31.95,6.53,31.73,6.53 M31.3,9.55c0,0.85-0.67,0.86-0.76,0.86
		c-0.48,0-0.87-0.39-0.87-0.87c0-0.48,0.39-0.87,0.87-0.87h0c0.29,0,0.55,0.11,0.76,0.28V9.55z"/>
	<path style="clip-path:url(#SVGID_00000134209007177790236790000008970984659547934367_);fill:#FFFFFF;" d="M22.48,8.76
		c0.23,0,0.42-0.19,0.42-0.41c0-0.23-0.18-0.42-0.42-0.42h-0.51V6.95c0-0.23-0.19-0.42-0.42-0.42c-0.23,0-0.41,0.19-0.41,0.42v2.84
		c0,0.55,0.28,1.04,0.7,1.34c0.07,0.05,0.15,0.08,0.25,0.08c0.23,0,0.41-0.19,0.41-0.42c0-0.15-0.07-0.27-0.19-0.35
		c-0.21-0.15-0.34-0.39-0.34-0.66V8.76H22.48z"/>
	<path style="clip-path:url(#SVGID_00000134209007177790236790000008970984659547934367_);fill:#FFFFFF;" d="M25,7.9h-0.09
		c-0.31,0-0.61,0.09-0.86,0.24c-0.07-0.13-0.21-0.22-0.37-0.22c-0.23,0-0.41,0.19-0.41,0.42v2.44c0,0.23,0.18,0.41,0.41,0.41
		c0.23,0,0.41-0.19,0.41-0.41l0-1.22V9.54c0-0.28,0.14-0.52,0.35-0.67c0.13-0.09,0.29-0.14,0.46-0.14H25c0.23,0,0.41-0.18,0.41-0.41
		S25.22,7.9,25,7.9"/>
	<path style="clip-path:url(#SVGID_00000134209007177790236790000008970984659547934367_);fill:#FFFFFF;" d="M18.63,10.37
		c-0.23,0-0.42,0.18-0.42,0.41c0,0.23,0.19,0.41,0.42,0.41h0.97c0.71,0,1.09-0.47,1.09-0.95c0-0.43-0.22-0.7-0.67-0.89
		c-0.31-0.13-0.6-0.2-0.81-0.31c-0.11-0.06-0.1-0.13-0.1-0.16c0-0.07,0.05-0.12,0.13-0.12h1c0.23,0,0.42-0.19,0.42-0.41
		c0-0.23-0.19-0.41-0.42-0.41l-1.11,0c-0.48,0-0.87,0.51-0.87,0.99c0,0.21,0.09,0.65,0.66,0.86c0.44,0.16,0.91,0.25,0.91,0.42
		c0,0.1-0.14,0.16-0.35,0.16H18.63z"/>
	<path style="clip-path:url(#SVGID_00000134209007177790236790000008970984659547934367_);fill:#FFFFFF;" d="M28.73,9.58
		c0-0.06,0-0.11-0.01-0.16V8.44c0-0.22-0.16-0.4-0.36-0.4c-0.11,0-0.25,0.06-0.32,0.15c0,0-0.01,0-0.01,0
		c-0.15-0.14-0.59-0.32-1.17-0.26c0,0,0,0,0,0c-0.48,0.02-0.9,0.23-1.18,0.57c-0.23,0.25-0.37,0.58-0.37,1.01c0,0.02,0,0.04,0,0.06
		c0,0.01,0,0.02,0,0.03c0,0.91,0.7,1.64,1.61,1.64c0.41,0,0.79-0.15,1.08-0.4c0.01,0.19,0.22,0.36,0.36,0.36
		c0.2,0,0.37-0.16,0.37-0.41V9.58z M27.98,9.55c0,0.92-0.84,0.93-0.94,0.93c-0.59,0-1.02-0.42-1.02-0.94c0-0.52,0.42-0.94,1.02-0.94
		h0c0.36,0,0.72,0.08,0.94,0.3V9.55z"/>
	<path style="clip-path:url(#SVGID_00000134209007177790236790000008970984659547934367_);fill:#FFFFFF;" d="M17.79,9.58
		c0-0.06,0-0.11-0.01-0.16V8.44c0-0.22-0.16-0.4-0.36-0.4c-0.11,0-0.25,0.06-0.32,0.15c0,0-0.01,0-0.01,0
		c-0.15-0.14-0.59-0.32-1.17-0.26c0,0,0,0,0,0c-0.48,0.02-0.9,0.23-1.18,0.57c-0.23,0.25-0.37,0.58-0.37,1.01
		c0,0.02,0,0.04,0.01,0.06c0,0.01,0,0.02,0,0.03c0,0.91,0.7,1.64,1.61,1.64c0.41,0,0.79-0.15,1.08-0.4
		c0.01,0.19,0.22,0.36,0.36,0.36c0.2,0,0.36-0.16,0.36-0.41V9.58z M17.04,9.55c0,0.92-0.83,0.93-0.94,0.93
		c-0.6,0-1.02-0.42-1.02-0.94c0-0.52,0.42-0.94,1.02-0.94h0c0.36,0,0.73,0.08,0.94,0.3V9.55z"/>
	<path style="clip-path:url(#SVGID_00000134209007177790236790000008970984659547934367_);fill:#FFFFFF;" d="M12.73,7.9
		c-0.41,0-0.75,0.17-1.02,0.49L11.7,8.4c-0.22-0.3-0.58-0.5-0.98-0.5h0c-0.83,0-1.32,0.4-1.32,1.07v1.81c0,0.24,0.19,0.43,0.43,0.43
		c0.24,0,0.43-0.2,0.43-0.43V9.27c0-0.35,0.17-0.54,0.48-0.54c0.32,0,0.49,0.18,0.49,0.54v1.51c0,0.24,0.19,0.43,0.43,0.43
		c0.24,0,0.43-0.2,0.43-0.43V9.05c0,0,0-0.01,0-0.01c0.14-0.26,0.36-0.31,0.48-0.31c0.32,0,0.49,0.18,0.49,0.54h0v1.51
		c0,0.24,0.19,0.43,0.43,0.43c0.24,0,0.43-0.2,0.43-0.43V8.97v0C13.95,8.24,13.32,7.9,12.73,7.9"/>
	<path style="clip-path:url(#SVGID_00000134209007177790236790000008970984659547934367_);fill:#FFFFFF;" d="M32.59,6.72h0.19
		c0.06,0,0.11,0.03,0.11,0.09c0,0.03-0.01,0.07-0.05,0.08c0.03,0.01,0.04,0.04,0.05,0.08c0,0.02,0,0.06,0.01,0.07h-0.1
		c-0.01-0.02-0.01-0.03-0.01-0.05c0-0.03-0.01-0.06-0.05-0.06H32.7v0.11h-0.1V6.72z M32.7,6.86h0.05c0.02,0,0.04,0,0.04-0.03
		c0-0.02-0.01-0.03-0.05-0.03H32.7V6.86z"/>

		<path style="clip-path:url(#SVGID_00000134209007177790236790000008970984659547934367_);fill:none;stroke:#FFFFFF;stroke-width:0.046;stroke-miterlimit:10;" d="
		M33.07,6.88c0-0.18-0.15-0.32-0.32-0.32c-0.18,0-0.32,0.14-0.32,0.32c0,0.18,0.15,0.32,0.32,0.32C32.93,7.2,33.07,7.06,33.07,6.88z
		"/>
</g>
<g>
	<defs>
		<rect id="SVGID_00000020398696569985936090000008271443696989247887_" y="0" width="42.52" height="28.35"/>
	</defs>
	<clipPath id="SVGID_00000124137106360292472030000004966279269578826147_">
		<use xlink:href="#SVGID_00000020398696569985936090000008271443696989247887_"  style="overflow:visible;"/>
	</clipPath>
	<g style="clip-path:url(#SVGID_00000124137106360292472030000004966279269578826147_);">
		<text transform="matrix(1 0 0 1 3.2314 26.744)" class="st9 st10">12345678</text>
	</g>
</g>
</svg>
